#!OML:ASF H:\Terrain\Patient Classification 1\Terrain2\Thursday\justin.ASF
:FULLY-SPECIFIED
:DEGREES
2435
root -2.99595 17.9997 -0.358592 -217.948 -263.055 145.184
lowerback 17.7015 -0.013547 6.6884
upperback 5.8024 1.68619 3.50998
thorax -3.60883 0.997492 -0.414955
lowerneck -12.3273 -4.04827 -9.97681
upperneck 37.072 -3.1596 4.14598
head 15.338 -1.68568 3.14527
rclavicle 2.50469e-014 -8.74653e-015
rhumerus -31.5823 -9.95401 -76.7081
rradius 29.603
rwrist -8.7405
rhand -19.1194 10.8655
rfingers 7.12502
rthumb 7.18994 -18.9924
lclavicle 2.50469e-014 -8.74653e-015
lhumerus -34.9355 9.37518 81.4962
lradius 40.0913
lwrist 4.90778
lhand -17.4551 19.6655
lfingers 7.12502
lthumb 8.79617 -310.538
rfemur 10.6117 -6.86067 27.3431
rtibia -1.74931e-014
rfoot -5.59422 3.35384
rtoes 16.7288
lfemur -77.6143 390.255 -12.1902
ltibia 132.841
lfoot -13.8792 -19.006
ltoes -1.79005
2436
root -2.95155 18.006 -0.365406 -215.142 -262.559 148.676
lowerback 18.1342 0.0264399 6.79808
upperback 6.0592 1.79815 3.47135
thorax -3.55085 1.06695 -0.544262
lowerneck -12.452 -3.97795 -10.1378
upperneck 37.1589 -3.0384 4.26505
head 15.4057 -1.64268 3.24813
rclavicle 3.57812e-015 -7.95139e-016
rhumerus -31.3102 -9.81794 -76.6565
rradius 29.2585
rwrist -8.35195
rhand -18.9883 11.0554
rfingers 7.12502
rthumb 7.31649 -18.7981
lclavicle 3.57812e-015 -7.95139e-016
lhumerus -35.0218 10.0828 81.0871
lradius 39.8347
lwrist 4.08823
lhand -16.7239 19.4095
lfingers 7.12502
lthumb 9.50177 -310.825
rfemur 11.5411 -6.40312 27.1554
rtibia -3.49861e-014
rfoot -5.70013 3.26073
rtoes 15.9798
lfemur -79.5992 393.003 -12.6583
ltibia 134.969
lfoot -14.8437 -19.904
ltoes -2.5654
2437
root -2.91283 18.0038 -0.364577 -215.295 -262.077 149.144
lowerback 18.5873 -0.00749962 7.15764
upperback 6.25907 1.87004 3.4946
thorax -3.55755 1.11584 -0.741105
lowerneck -12.4434 -3.88473 -10.0316
upperneck 37.0711 -2.90486 4.16768
head 15.341 -1.58516 3.20567
rclavicle -2.42517e-014 -3.81667e-014
rhumerus -31.2073 -9.18647 -76.8168
rradius 29.2748
rwrist -8.62477
rhand -18.8114 11.1354
rfingers 7.12502
rthumb 7.48719 -18.7121
lclavicle -2.42517e-014 -3.81667e-014
lhumerus -35.1646 10.5897 80.7731
lradius 39.6994
lwrist 3.71173
lhand -16.6269 19.2575
lfingers 7.12502
lthumb 9.59535 -310.981
rfemur 12.3435 -6.17619 27.3171
rtibia -1.59028e-015
rfoot -5.80952 3.43523
rtoes 16.0211
lfemur -82.0447 395.6 -12.9373
ltibia 136.931
lfoot -15.1676 -21.2943
ltoes -0.226199
2438
root -2.86303 17.9921 -0.364139 -213.968 -261.606 151.056
lowerback 18.9016 0.0887589 7.31971
upperback 6.42852 2.05497 3.4509
thorax -3.51999 1.21768 -0.920644
lowerneck -12.334 -3.83408 -9.87637
upperneck 36.9935 -2.84643 4.05406
head 15.2638 -1.5527 3.13636
rclavicle -3.18055e-014 -2.54444e-014
rhumerus -31.2082 -8.71853 -76.9159
rradius 29.2063
rwrist -8.6682
rhand -18.5244 11.1335
rfingers 7.12502
rthumb 7.76421 -18.7039
lclavicle -3.18055e-014 -2.54444e-014
lhumerus -35.3975 10.8755 80.4788
lradius 39.6483
lwrist 3.39958
lhand -16.3201 19.1161
lfingers 7.12502
lthumb 9.89134 -311.136
rfemur 13.1387 -5.82766 27.2727
rtibia -3.02153e-014
rfoot -5.91858 3.63877
rtoes 16.4613
lfemur -84.4681 398.297 -13.5684
ltibia 138.705
lfoot -15.557 -22.7549
ltoes 2.49078
2439
root -2.81081 17.9882 -0.370514 -211.261 -261.15 154.398
lowerback 19.2755 0.214183 7.21944
upperback 6.61063 2.23538 3.41196
thorax -3.51008 1.31497 -0.949755
lowerneck -12.3801 -3.80134 -10.0062
upperneck 37.103 -2.74308 4.04596
head 15.3236 -1.52784 3.17727
rclavicle -1.78906e-014 8.74653e-015
rhumerus -31.0175 -8.3657 -76.8954
rradius 28.8426
rwrist -8.48
rhand -18.2723 11.0709
rfingers 7.12502
rthumb 8.00757 -18.7575
lclavicle -1.78906e-014 8.74653e-015
lhumerus -35.6199 11.4707 80.16
lradius 39.4558
lwrist 2.91772
lhand -15.7599 18.796
lfingers 7.12502
lthumb 10.4318 -311.483
rfemur 13.9946 -5.35915 26.9561
rtibia 5.40694e-014
rfoot -5.86986 3.60808
rtoes 17.0797
lfemur -86.697 400.734 -14.6239
ltibia 140.194
lfoot -16.2676 -23.4929
ltoes 1.50183
2440
root -2.761 17.9949 -0.391135 -209.016 -260.71 157.355
lowerback 19.7903 0.31327 7.31176
upperback 6.78535 2.4349 3.37294
thorax -3.56979 1.42198 -1.0958
lowerneck -12.4212 -3.86165 -10.1789
upperneck 37.2468 -2.72569 3.94356
head 15.4098 -1.55716 3.17244
rclavicle 4.37326e-015 4.77083e-015
rhumerus -30.7806 -8.50137 -76.7055
rradius 28.3303
rwrist -7.91854
rhand -18.4388 10.9199
rfingers 7.12502
rthumb 7.84679 -18.9145
lclavicle 4.37326e-015 4.77083e-015
lhumerus -35.7886 11.6073 80.0741
lradius 39.2255
lwrist 3.04565
lhand -15.8483 18.9825
lfingers 7.12502
lthumb 10.3465 -311.292
rfemur 14.9107 -4.92275 26.5664
rtibia 6.36111e-015
rfoot -5.91307 3.62202
rtoes 17.1675
lfemur -88.9384 402.406 -15.9918
ltibia 141.456
lfoot -17.3077 -23.5055
ltoes -1.80961
2441
root -2.70917 17.9932 -0.407944 -208.599 -260.263 158.527
lowerback 20.3215 0.352629 7.60545
upperback 6.98086 2.60839 3.42453
thorax -3.60879 1.52086 -1.25389
lowerneck -12.388 -3.89222 -10.2869
upperneck 37.3049 -2.6873 3.82023
head 15.4312 -1.57058 3.14738
rclavicle 1.11319e-014 1.59028e-015
rhumerus -30.6545 -8.74383 -76.4239
rradius 28.0098
rwrist -7.1867
rhand -18.7404 10.9981
rfingers 7.12502
rthumb 7.55573 -18.8469
lclavicle 1.11319e-014 1.59028e-015
lhumerus -35.9426 11.4227 80.1156
lradius 39.0505
lwrist 3.5113
lhand -16.3197 19.6519
lfingers 7.12502
lthumb 9.89175 -310.6
rfemur 15.9103 -4.623 26.4412
rtibia -4.13472e-014
rfoot -6.07758 3.74409
rtoes 16.7771
lfemur -91.2737 403.675 -17.2728
ltibia 142.577
lfoot -18.097 -23.394
ltoes -3.51708
2442
root -2.6543 17.9814 -0.413409 -208.048 -259.915 159.797
lowerback 20.7379 0.372882 7.59337
upperback 7.20802 2.68665 3.5037
thorax -3.57649 1.57375 -1.18754
lowerneck -12.4129 -3.82352 -10.3837
upperneck 37.3255 -2.54579 3.80241
head 15.4367 -1.52662 3.18113
rclavicle 3.02153e-014 5.24792e-014
rhumerus -30.4801 -8.67281 -76.1612
rradius 27.8161
rwrist -6.66777
rhand -18.1983 11.3242
rfingers 7.12502
rthumb 8.07891 -18.5014
lclavicle 3.02153e-014 5.24792e-014
lhumerus -36.0918 11.5327 80.0768
lradius 38.9001
lwrist 3.90425
lhand -16.7838 20.2881
lfingers 7.12502
lthumb 9.44398 -309.943
rfemur 16.9017 -4.39522 26.2749
rtibia 6.36111e-015
rfoot -6.15239 3.84556
rtoes 17.0619
lfemur -93.452 404.696 -18.4802
ltibia 143.475
lfoot -18.0158 -23.7278
ltoes -2.39929
2443
root -2.59839 17.9654 -0.420322 -206.866 -259.517 161.636
lowerback 21.0831 0.422417 7.56567
upperback 7.40819 2.78012 3.45823
thorax -3.52879 1.63233 -1.24794
lowerneck -12.4353 -3.75284 -10.3099
upperneck 37.3594 -2.44255 3.75993
head 15.4454 -1.47855 3.16815
rclavicle -2.26615e-014 -5.40694e-014
rhumerus -30.3144 -8.36994 -76.1167
rradius 27.7124
rwrist -6.42876
rhand -17.5353 11.21
rfingers 7.12502
rthumb 8.71878 -18.59
lclavicle -2.26615e-014 -5.40694e-014
lhumerus -36.2227 11.6329 79.8747
lradius 38.7103
lwrist 4.41867
lhand -17.0228 20.5951
lfingers 7.12502
lthumb 9.21336 -309.626
rfemur 17.8313 -4.05972 26.0257
rtibia 3.18055e-014
rfoot -6.20481 3.98896
rtoes 17.9146
lfemur -95.5671 405.583 -19.7753
ltibia 144.169
lfoot -17.9874 -24.3842
ltoes -2.55374
2444
root -2.54028 17.9499 -0.42679 -207.25 -258.894 161.935
lowerback 21.4731 0.442783 8.02066
upperback 7.59829 2.93959 3.3853
thorax -3.47854 1.72954 -1.62439
lowerneck -12.338 -3.6888 -10.0877
upperneck 37.3601 -2.41742 3.75247
head 15.4114 -1.43647 3.1303
rclavicle -2.94201e-014 -3.18055e-015
rhumerus -30.2696 -7.77407 -76.3655
rradius 27.7878
rwrist -6.74715
rhand -17.8871 11.0297
rfingers 7.12502
rthumb 8.37931 -18.7841
lclavicle -2.94201e-014 -3.18055e-015
lhumerus -36.391 11.7276 79.4493
lradius 38.4711
lwrist 4.74635
lhand -16.6041 20.5671
lfingers 7.12502
lthumb 9.6173 -309.672
rfemur 18.7286 -3.66594 26.1647
rtibia -1.90833e-014
rfoot -6.21412 4.173
rtoes 18.2804
lfemur -97.9181 406.518 -20.931
ltibia 144.754
lfoot -18.3486 -24.4881
ltoes -4.57541
2445
root -2.47984 17.9429 -0.435809 -207.252 -258.352 162.576
lowerback 21.8148 0.490114 8.37832
upperback 7.77279 3.11039 3.31186
thorax -3.42102 1.8313 -1.94921
lowerneck -12.2088 -3.63507 -9.83439
upperneck 37.3063 -2.42806 3.75676
head 15.3452 -1.40305 3.08404
rclavicle -7.15625e-015 2.8625e-014
rhumerus -30.2438 -7.37488 -76.5454
rradius 27.8391
rwrist -7.19415
rhand -18.3568 10.9481
rfingers 7.12502
rthumb 7.92597 -18.8833
lclavicle -7.15625e-015 2.8625e-014
lhumerus -36.589 12.1217 78.9575
lradius 38.1325
lwrist 4.25176
lhand -15.7377 20.3074
lfingers 7.12502
lthumb 10.4531 -309.972
rfemur 19.6224 -3.29813 26.1833
rtibia 4.29375e-014
rfoot -6.33335 4.32524
rtoes 18.1065
lfemur -100.082 406.758 -22.1675
ltibia 145.103
lfoot -18.2532 -24.2016
ltoes -4.57889
2446
root -2.41875 17.9348 -0.442375 -205.808 -257.976 164.758
lowerback 22.2597 0.619803 8.22999
upperback 7.97078 3.29276 3.22111
thorax -3.41803 1.93207 -2.01785
lowerneck -12.1732 -3.62295 -9.61997
upperneck 37.2131 -2.45138 3.66505
head 15.2843 -1.39456 2.99932
rclavicle -1.63003e-014 6.36111e-015
rhumerus -30.1247 -7.73248 -76.4471
rradius 27.762
rwrist -6.99975
rhand -18.2903 10.7158
rfingers 7.12502
rthumb 7.99017 -19.1132
lclavicle -1.63003e-014 6.36111e-015
lhumerus -36.7376 12.7641 78.5784
lradius 37.7243
lwrist 3.62432
lhand -15.8397 20.1836
lfingers 7.12502
lthumb 10.3548 -310.091
rfemur 20.6018 -2.92636 25.7952
rtibia 7.95139e-015
rfoot -6.47588 4.50097
rtoes 18.4046
lfemur -101.512 406.506 -23.432
ltibia 145.149
lfoot -18.0894 -24.0945
ltoes -4.36367
2447
root -2.35843 17.9197 -0.437471 -205.846 -257.504 165.539
lowerback 22.8078 0.717765 8.28774
upperback 8.2158 3.49982 3.22331
thorax -3.4038 2.05196 -2.11163
lowerneck -12.2488 -3.67215 -9.58707
upperneck 37.1533 -2.54585 3.68604
head 15.2804 -1.42815 2.98436
rclavicle 6.63941e-014 2.46493e-014
rhumerus -29.9572 -8.19171 -76.3661
rradius 27.7617
rwrist -6.74449
rhand -18.6134 10.6073
rfingers 7.12502
rthumb 7.67832 -19.2333
lclavicle 6.63941e-014 2.46493e-014
lhumerus -36.8155 13.1729 78.3192
lradius 37.4285
lwrist 3.78959
lhand -16.9346 20.9718
lfingers 7.12502
lthumb 9.29846 -309.253
rfemur 21.6945 -2.621 25.766
rtibia -5.56597e-014
rfoot -6.61656 4.71462
rtoes 18.3795
lfemur -102.832 406.344 -24.1803
ltibia 145.016
lfoot -18.0826 -24.1258
ltoes -7.07835
2448
root -2.30075 17.9131 -0.432162 -205.999 -257.152 165.953
lowerback 23.0983 0.760408 8.4407
upperback 8.40475 3.62642 3.24123
thorax -3.32094 2.13237 -2.21405
lowerneck -12.3627 -3.75689 -9.75242
upperneck 37.197 -2.66121 3.80955
head 15.3469 -1.48474 3.04891
rclavicle -1.59028e-014 -7.15625e-015
rhumerus -29.8422 -8.10025 -76.4009
rradius 27.943
rwrist -7.00725
rhand -18.9968 10.479
rfingers 7.12502
rthumb 7.3082 -19.3748
lclavicle -1.59028e-014 -7.15625e-015
lhumerus -36.888 12.9237 78.2662
lradius 37.2683
lwrist 4.60512
lhand -17.7907 22.2539
lfingers 7.12502
lthumb 8.47232 -307.936
rfemur 22.5206 -2.43036 25.7644
rtibia -2.70347e-014
rfoot -6.82099 4.93058
rtoes 17.9817
lfemur -104.124 405.416 -24.7713
ltibia 144.637
lfoot -18.0981 -24.0479
ltoes -11.1663
2449
root -2.24285 17.9056 -0.431724 -205.413 -256.966 166.951
lowerback 23.2233 0.76504 8.45826
upperback 8.52042 3.64894 3.2086
thorax -3.25062 2.15426 -2.26584
lowerneck -12.337 -3.76573 -9.90015
upperneck 37.2206 -2.66866 3.90645
head 15.3594 -1.49556 3.11664
rclavicle 5.1684e-015 -1.74931e-014
rhumerus -29.6853 -8.30217 -76.2386
rradius 27.9284
rwrist -7.16846
rhand -18.332 10.7515
rfingers 7.12502
rthumb 7.9499 -19.079
lclavicle 5.1684e-015 -1.74931e-014
lhumerus -37.0535 12.4945 78.2142
lradius 37.1258
lwrist 5.29343
lhand -17.6075 22.6075
lfingers 7.12502
lthumb 8.64913 -307.59
rfemur 23.1604 -2.30755 25.5629
rtibia -1.11319e-014
rfoot -6.98158 5.22411
rtoes 17.711
lfemur -104.979 403.829 -25.3263
ltibia 143.993
lfoot -18.0687 -24.0203
ltoes -13.5103
